<svg width="99" height="27" viewBox="0 0 99 27" fill="none" xmlns="http://www.w3.org/2000/svg">
<path d="M5.048 2.24V20H0.344V2.24H5.048ZM13.9908 20.168C12.6468 20.168 11.4388 19.888 10.3668 19.328C9.31081 18.768 8.47881 17.968 7.87081 16.928C7.26281 15.888 6.95881 14.664 6.95881 13.256C6.95881 11.864 7.26281 10.648 7.87081 9.608C8.49481 8.568 9.33481 7.768 10.3908 7.208C11.4628 6.648 12.6708 6.368 14.0148 6.368C15.3588 6.368 16.5588 6.648 17.6148 7.208C18.6868 7.768 19.5268 8.568 20.1348 9.608C20.7588 10.648 21.0708 11.864 21.0708 13.256C21.0708 14.648 20.7588 15.872 20.1348 16.928C19.5268 17.968 18.6868 18.768 17.6148 19.328C16.5428 19.888 15.3348 20.168 13.9908 20.168ZM13.9908 16.088C14.6468 16.088 15.1908 15.848 15.6228 15.368C16.0708 14.872 16.2948 14.168 16.2948 13.256C16.2948 12.344 16.0708 11.648 15.6228 11.168C15.1908 10.688 14.6548 10.448 14.0148 10.448C13.3748 10.448 12.8388 10.688 12.4068 11.168C11.9748 11.648 11.7588 12.344 11.7588 13.256C11.7588 14.184 11.9668 14.888 12.3828 15.368C12.7988 15.848 13.3348 16.088 13.9908 16.088ZM27.9526 6.368C28.8646 6.368 29.6566 6.552 30.3286 6.92C31.0166 7.288 31.5446 7.784 31.9126 8.408V6.536H36.6166V19.856C36.6166 21.12 36.3766 22.256 35.8966 23.264C35.4166 24.288 34.6646 25.104 33.6406 25.712C32.6326 26.32 31.3526 26.624 29.8006 26.624C27.7206 26.624 26.0566 26.136 24.8086 25.16C23.5606 24.184 22.8486 22.856 22.6726 21.176H27.3046C27.4006 21.608 27.6406 21.944 28.0246 22.184C28.4086 22.424 28.9046 22.544 29.5126 22.544C31.1126 22.544 31.9126 21.648 31.9126 19.856V18.128C31.5446 18.752 31.0166 19.248 30.3286 19.616C29.6566 19.984 28.8646 20.168 27.9526 20.168C26.8806 20.168 25.9046 19.888 25.0246 19.328C24.1606 18.768 23.4726 17.968 22.9606 16.928C22.4646 15.872 22.2166 14.648 22.2166 13.256C22.2166 11.864 22.4646 10.648 22.9606 9.608C23.4726 8.568 24.1606 7.768 25.0246 7.208C25.9046 6.648 26.8806 6.368 27.9526 6.368ZM31.9126 13.256C31.9126 12.392 31.6726 11.712 31.1926 11.216C30.7286 10.72 30.1526 10.472 29.4646 10.472C28.7606 10.472 28.1766 10.72 27.7126 11.216C27.2486 11.696 27.0166 12.376 27.0166 13.256C27.0166 14.12 27.2486 14.808 27.7126 15.32C28.1766 15.816 28.7606 16.064 29.4646 16.064C30.1526 16.064 30.7286 15.816 31.1926 15.32C31.6726 14.824 31.9126 14.136 31.9126 13.256ZM44.2651 6.368C45.1771 6.368 45.9691 6.552 46.6411 6.92C47.3291 7.288 47.8571 7.784 48.2251 8.408V6.536H52.9291V19.856C52.9291 21.12 52.6891 22.256 52.2091 23.264C51.7291 24.288 50.9771 25.104 49.9531 25.712C48.9451 26.32 47.6651 26.624 46.1131 26.624C44.0331 26.624 42.3691 26.136 41.1211 25.16C39.8731 24.184 39.1611 22.856 38.9851 21.176H43.6171C43.7131 21.608 43.9531 21.944 44.3371 22.184C44.7211 22.424 45.2171 22.544 45.8251 22.544C47.4251 22.544 48.2251 21.648 48.2251 19.856V18.128C47.8571 18.752 47.3291 19.248 46.6411 19.616C45.9691 19.984 45.1771 20.168 44.2651 20.168C43.1931 20.168 42.2171 19.888 41.3371 19.328C40.4731 18.768 39.7851 17.968 39.2731 16.928C38.7771 15.872 38.5291 14.648 38.5291 13.256C38.5291 11.864 38.7771 10.648 39.2731 9.608C39.7851 8.568 40.4731 7.768 41.3371 7.208C42.2171 6.648 43.1931 6.368 44.2651 6.368ZM48.2251 13.256C48.2251 12.392 47.9851 11.712 47.5051 11.216C47.0411 10.72 46.4651 10.472 45.7771 10.472C45.0731 10.472 44.4891 10.72 44.0251 11.216C43.5611 11.696 43.3291 12.376 43.3291 13.256C43.3291 14.12 43.5611 14.808 44.0251 15.32C44.4891 15.816 45.0731 16.064 45.7771 16.064C46.4651 16.064 47.0411 15.816 47.5051 15.32C47.9851 14.824 48.2251 14.136 48.2251 13.256ZM57.9856 5.288C57.1536 5.288 56.4816 5.064 55.9696 4.616C55.4736 4.152 55.2256 3.576 55.2256 2.888C55.2256 2.184 55.4736 1.6 55.9696 1.136C56.4816 0.671999 57.1536 0.439999 57.9856 0.439999C58.8016 0.439999 59.4576 0.671999 59.9536 1.136C60.4656 1.6 60.7216 2.184 60.7216 2.888C60.7216 3.576 60.4656 4.152 59.9536 4.616C59.4576 5.064 58.8016 5.288 57.9856 5.288ZM60.3136 6.536V20H55.6096V6.536H60.3136ZM71.8004 6.416C73.3524 6.416 74.5844 6.936 75.4964 7.976C76.4084 9 76.8644 10.392 76.8644 12.152V20H72.1604V12.776C72.1604 12.008 71.9604 11.408 71.5604 10.976C71.1604 10.528 70.6244 10.304 69.9524 10.304C69.2484 10.304 68.6964 10.528 68.2964 10.976C67.8964 11.408 67.6964 12.008 67.6964 12.776V20H62.9924V6.536H67.6964V8.456C68.1124 7.848 68.6724 7.36 69.3764 6.992C70.0804 6.608 70.8884 6.416 71.8004 6.416ZM85.1816 20.168C83.9656 20.168 82.8776 19.968 81.9176 19.568C80.9736 19.152 80.2216 18.592 79.6616 17.888C79.1176 17.168 78.8136 16.36 78.7496 15.464H83.3096C83.3736 15.896 83.5736 16.232 83.9096 16.472C84.2456 16.712 84.6616 16.832 85.1576 16.832C85.5416 16.832 85.8456 16.752 86.0696 16.592C86.2936 16.432 86.4056 16.224 86.4056 15.968C86.4056 15.632 86.2216 15.384 85.8536 15.224C85.4856 15.064 84.8776 14.888 84.0296 14.696C83.0696 14.504 82.2696 14.288 81.6296 14.048C80.9896 13.808 80.4296 13.416 79.9496 12.872C79.4856 12.328 79.2536 11.592 79.2536 10.664C79.2536 9.864 79.4696 9.144 79.9016 8.504C80.3336 7.848 80.9656 7.328 81.7976 6.944C82.6456 6.56 83.6616 6.368 84.8456 6.368C86.6056 6.368 87.9896 6.8 88.9976 7.664C90.0056 8.528 90.5896 9.664 90.7496 11.072H86.5016C86.4216 10.64 86.2296 10.312 85.9256 10.088C85.6376 9.848 85.2456 9.728 84.7496 9.728C84.3656 9.728 84.0696 9.8 83.8616 9.944C83.6696 10.088 83.5736 10.288 83.5736 10.544C83.5736 10.864 83.7576 11.112 84.1256 11.288C84.4936 11.448 85.0856 11.616 85.9016 11.792C86.8776 12 87.6856 12.232 88.3256 12.488C88.9816 12.744 89.5496 13.16 90.0296 13.736C90.5256 14.296 90.7736 15.064 90.7736 16.04C90.7736 16.824 90.5416 17.528 90.0776 18.152C89.6296 18.776 88.9816 19.272 88.1336 19.64C87.3016 19.992 86.3176 20.168 85.1816 20.168Z" fill="#FFF2E7"/>
<path d="M95.3662 20.192C94.5342 20.192 93.8622 19.968 93.3502 19.52C92.8542 19.056 92.6062 18.472 92.6062 17.768C92.6062 17.064 92.8542 16.48 93.3502 16.016C93.8622 15.552 94.5342 15.32 95.3662 15.32C96.1822 15.32 96.8382 15.552 97.3342 16.016C97.8462 16.48 98.1022 17.064 98.1022 17.768C98.1022 18.456 97.8462 19.032 97.3342 19.496C96.8382 19.96 96.1822 20.192 95.3662 20.192Z" fill="#F16454"/>
</svg>
