<svg width="95" height="95" viewBox="0 0 95 95" fill="none" xmlns="http://www.w3.org/2000/svg">
<path d="M95 47.5C95 73.7335 73.7335 95 47.5 95C21.2665 95 0 73.7335 0 47.5C0 21.2665 21.2665 0 47.5 0C73.7335 0 95 21.2665 95 47.5Z" fill="#E21120"/>
<path d="M10.2098 52.7376H20.9379V49.9743C18.5485 51.8924 17.752 52.25 16.1265 52.25H15.33V43.1473C15.33 41.2618 15.6389 40.7904 16.793 40.5791V40.4328H10.2098V40.5791C11.3476 40.7904 11.6565 41.2618 11.6565 43.1473V50.0231C11.6565 51.8761 11.3476 52.38 10.2098 52.5913V52.7376Z" fill="white"/>
<path d="M27.0079 53.0465C29.885 53.0465 32.1282 51.6323 32.1282 48.674C32.1282 45.6831 29.885 44.2852 27.0079 44.2852C24.1308 44.2852 21.8877 45.6831 21.8877 48.674C21.8877 51.6323 24.1308 53.0465 27.0079 53.0465ZM25.3337 48.674C25.3337 45.8294 25.9189 44.6753 27.0242 44.6753C28.097 44.6753 28.6822 45.8294 28.6822 48.674C28.6822 51.5023 28.097 52.6726 27.0242 52.6726C25.9189 52.6726 25.3337 51.5023 25.3337 48.674Z" fill="white"/>
<path d="M36.8211 56.8826C40.3809 56.8826 44.1032 55.1596 44.1032 52.8677C44.1032 51.8274 43.2905 51.0959 41.6325 51.0959C40.4622 51.0959 38.0565 51.4535 36.6423 51.4535C35.5207 51.4535 35.1794 51.2422 35.1794 50.8521C35.1794 50.527 35.4557 50.2344 36.0734 50.0068C36.7886 50.2344 37.6176 50.3482 38.4628 50.3482C40.9173 50.3482 43.1767 49.4379 43.1767 47.3248C43.1767 46.4958 42.8191 45.8456 42.2502 45.3742C42.4615 44.7891 42.9979 44.6103 44.152 44.6103V42.0908C42.8679 42.1558 41.9414 43.0986 41.7951 45.0817C40.9173 44.5615 39.7145 44.3339 38.4628 44.3339C36.0084 44.3339 33.7815 45.2279 33.7815 47.3248C33.7815 48.4952 34.4642 49.2916 35.5045 49.7793C34.3016 50.2669 33.1638 51.0309 33.1638 52.2012C33.1638 53.3391 34.2529 53.973 36.2684 53.973H36.4147C35.0331 54.2331 33.6677 54.672 33.6677 55.5335C33.6677 56.3787 34.8705 56.8826 36.8211 56.8826ZM35.6345 55.4034C35.6345 54.8183 36.2197 54.4281 37.5526 54.1193C38.5929 53.8755 39.8445 53.6967 40.5922 53.6967C41.3724 53.6967 41.7138 53.8755 41.7138 54.2818C41.7138 55.3872 39.3894 56.2812 37.39 56.2812C36.0246 56.2812 35.6345 55.8748 35.6345 55.4034ZM37.195 47.3248C37.195 45.5855 37.6013 44.6915 38.4628 44.6915C39.3243 44.6915 39.747 45.5855 39.747 47.3248C39.747 49.0803 39.3243 49.9906 38.4628 49.9906C37.6013 49.9906 37.195 49.0641 37.195 47.3248Z" fill="white"/>
<path d="M48.7798 56.8826C52.3396 56.8826 56.0619 55.1596 56.0619 52.8677C56.0619 51.8274 55.2492 51.0959 53.5912 51.0959C52.4208 51.0959 50.0151 51.4535 48.601 51.4535C47.4794 51.4535 47.138 51.2422 47.138 50.8521C47.138 50.527 47.4144 50.2344 48.0321 50.0068C48.7473 50.2344 49.5763 50.3482 50.4215 50.3482C52.876 50.3482 55.1354 49.4379 55.1354 47.3248C55.1354 46.4958 54.7778 45.8456 54.2089 45.3742C54.4202 44.7891 54.9566 44.6103 56.1107 44.6103V42.0908C54.8265 42.1558 53.9 43.0986 53.7537 45.0817C52.876 44.5615 51.6731 44.3339 50.4215 44.3339C47.967 44.3339 45.7401 45.2279 45.7401 47.3248C45.7401 48.4952 46.4228 49.2916 47.4631 49.7793C46.2603 50.2669 45.1225 51.0309 45.1225 52.2012C45.1225 53.3391 46.2115 53.973 48.2271 53.973H48.3734C46.9918 54.2331 45.6264 54.672 45.6264 55.5335C45.6264 56.3787 46.8292 56.8826 48.7798 56.8826ZM47.5932 55.4034C47.5932 54.8183 48.1784 54.4281 49.5112 54.1193C50.5516 53.8755 51.8032 53.6967 52.5509 53.6967C53.3311 53.6967 53.6725 53.8755 53.6725 54.2818C53.6725 55.3872 51.348 56.2812 49.3487 56.2812C47.9833 56.2812 47.5932 55.8748 47.5932 55.4034ZM49.1536 47.3248C49.1536 45.5855 49.56 44.6915 50.4215 44.6915C51.283 44.6915 51.7056 45.5855 51.7056 47.3248C51.7056 49.0803 51.283 49.9906 50.4215 49.9906C49.56 49.9906 49.1536 49.0641 49.1536 47.3248Z" fill="white"/>
<path d="M56.8498 52.7376H62.7665V52.5913C61.7587 52.38 61.4824 51.8761 61.4824 50.0231V44.3177L56.8985 44.6753V44.8216C57.8901 44.9516 58.1176 45.4067 58.1176 47.2923V50.0231C58.1176 51.8761 57.8413 52.38 56.8498 52.5913V52.7376ZM58.1664 43.001H61.3361V40.5628H58.1664V43.001Z" fill="white"/>
<path d="M63.1744 52.7376H68.8635V52.5913C68.0345 52.38 67.807 51.8761 67.807 50.0231V47.3248C68.0671 46.187 68.701 45.6018 69.3999 45.6018C70.0501 45.6018 70.489 45.9919 70.489 47.2273V50.0231C70.489 51.8761 70.2777 52.38 69.5137 52.5913V52.7376H74.8941V52.5913C74.0813 52.38 73.8538 51.8761 73.8538 50.0231V47.2923C73.8538 45.1304 72.7322 44.2689 71.0904 44.2689C69.595 44.2689 68.3922 45.1142 67.8232 46.382C67.8395 45.2605 67.9533 44.8216 68.2784 44.594H63.2069V44.7403C64.1659 44.9516 64.4422 45.423 64.4422 47.3086V50.0231C64.4422 51.8761 64.1659 52.38 63.1744 52.5913V52.7376Z" fill="white"/>
<path d="M80.1965 53.0465C82.586 53.0465 84.309 52.1037 84.309 50.4132C84.309 48.8202 82.7973 48.1538 81.2043 47.5199C80.099 47.0972 78.8149 46.6096 78.8149 45.6343C78.8149 45.0817 79.2538 44.7078 79.969 44.7078C81.058 44.7078 81.5944 45.5856 81.757 46.7396H84.2602C83.7401 45.0979 82.0333 44.2689 79.9039 44.2689C77.6283 44.2689 76.0191 45.1954 76.0191 46.8047C76.0191 48.4139 77.547 49.0641 79.14 49.6655C80.6029 50.2507 81.4319 50.6733 81.4319 51.5836C81.4319 52.2175 81.0093 52.6076 80.2453 52.6076C79.0262 52.6076 78.4735 51.5836 78.3597 50.2182H75.7102C76.0191 51.8599 77.482 53.0465 80.1965 53.0465Z" fill="white"/>
</svg>
