<svg width="103" height="103" viewBox="0 0 103 103" fill="none" xmlns="http://www.w3.org/2000/svg">
<path d="M103 51.5C103 79.9427 79.9427 103 51.5 103C23.0573 103 0 79.9427 0 51.5C0 23.0573 23.0573 0 51.5 0C79.9427 0 103 23.0573 103 51.5Z" fill="#E21120"/>
<path d="M22.7449 56.9829V53.8059H15.4699V44.3879H11.9358V56.9829H22.7449Z" fill="white"/>
<path d="M29.6816 57.1709C32.9713 57.1709 35.2083 55.3098 35.2083 52.2457C35.2083 49.1627 32.9713 47.3205 29.6816 47.3205C26.3918 47.3205 24.1548 49.1627 24.1548 52.2457C24.1548 55.3098 26.3918 57.1709 29.6816 57.1709ZM29.6816 54.0503C28.0837 54.0503 27.6513 53.618 27.6513 52.2457C27.6513 50.8734 28.0837 50.4222 29.6816 50.4222C31.2794 50.4222 31.7118 50.8734 31.7118 52.2457C31.7118 53.618 31.2794 54.0503 29.6816 54.0503Z" fill="white"/>
<path d="M41.0201 55.9302C43.1068 55.9302 44.1031 55.009 44.3475 53.6368H44.5355V55.6294C44.5355 57.2273 44.1783 57.4528 42.6556 57.4528C40.8134 57.4528 40.7194 57.2649 40.7194 56.4941H37.1853C37.1853 58.9755 39.1027 60.3666 42.4112 60.3666C46.0581 60.3666 48.0696 58.7687 48.0696 55.385V47.5085H44.761V49.7267H44.5731C44.3099 48.0912 43.0316 47.3205 41.1141 47.3205C38.3132 47.3205 36.6213 48.9371 36.6213 51.6065C36.6213 54.3135 38.2004 55.9302 41.0201 55.9302ZM40.193 51.6065C40.193 50.6854 40.6442 50.3658 42.2984 50.3658C43.8775 50.3658 44.5355 50.5726 44.5355 51.5877V51.7193C44.5355 52.7156 43.8775 52.9036 42.2984 52.9036C40.6442 52.9036 40.193 52.5464 40.193 51.6065Z" fill="white"/>
<path d="M54.1637 55.9302C56.2503 55.9302 57.2466 55.009 57.491 53.6368H57.679V55.6294C57.679 57.2273 57.3218 57.4528 55.7991 57.4528C53.9569 57.4528 53.8629 57.2649 53.8629 56.4941H50.3288C50.3288 58.9755 52.2462 60.3666 55.5547 60.3666C59.2016 60.3666 61.2131 58.7687 61.2131 55.385V47.5085H57.9046V49.7267H57.7166C57.4534 48.0912 56.1751 47.3205 54.2577 47.3205C51.4567 47.3205 49.7648 48.9371 49.7648 51.6065C49.7648 54.3135 51.3439 55.9302 54.1637 55.9302ZM53.3365 51.6065C53.3365 50.6854 53.7877 50.3658 55.4419 50.3658C57.021 50.3658 57.679 50.5726 57.679 51.5877V51.7193C57.679 52.7156 57.021 52.9036 55.4419 52.9036C53.7877 52.9036 53.3365 52.5464 53.3365 51.6065Z" fill="white"/>
<path d="M66.6304 46.6437V44.3879H63.0963V46.6437H66.6304ZM66.6304 56.9829V47.5085H63.0963V56.9829H66.6304Z" fill="white"/>
<path d="M72.0453 56.9829V52.0953C72.0453 50.8734 72.4212 50.4786 73.9815 50.4786C75.523 50.4786 76.0117 50.8922 76.0117 52.2081V56.9829H79.5459V50.911C79.5459 48.8619 78.3428 47.3205 75.7862 47.3205C73.2484 47.3205 72.2145 48.8055 72.0077 50.3846H71.8197V47.5085H68.5112V56.9829H72.0453Z" fill="white"/>
<path d="M86.437 57.1709C89.5763 57.1709 91.3434 55.8926 91.3434 54.1255C91.3434 52.5276 90.4599 51.6065 87.6965 51.3057L85.8166 51.099C84.7075 50.9862 84.5571 50.8546 84.5571 50.5914C84.5571 50.2342 84.7075 50.0838 85.8542 50.0838C87.2829 50.0838 87.4709 50.3094 87.4709 50.7982V50.911H91.005V50.8358C91.005 48.5048 89.2567 47.3205 85.967 47.3205C82.4141 47.3205 81.0794 48.768 81.0794 50.441C81.0794 52.0389 82.1321 52.96 84.0872 53.1668L86.8317 53.4676C87.7153 53.5616 87.8657 53.6368 87.8657 53.9375C87.8657 54.2571 87.6777 54.3887 86.4558 54.3887C85.1775 54.3887 84.8391 54.3323 84.8391 53.8059V53.618H81.305V53.6932C81.305 55.8738 83.0908 57.1709 86.437 57.1709Z" fill="white"/>
</svg>
